<svg width="24" height="24" viewBox="0 0 24 24" fill="none" xmlns="http://www.w3.org/2000/svg">
<path d="M22.5 0.333344H8.49998C8.19056 0.333344 7.89381 0.45626 7.67502 0.675052C7.45623 0.893845 7.33331 1.19059 7.33331 1.50001V6.16668H4.99998C4.69056 6.16668 4.39381 6.28959 4.17502 6.50839C3.95623 6.72718 3.83331 7.02392 3.83331 7.33334V12H1.49998C1.19056 12 0.893814 12.1229 0.675022 12.3417C0.456229 12.5605 0.333313 12.8573 0.333313 13.1667V22.5C0.333313 22.8094 0.456229 23.1062 0.675022 23.325C0.893814 23.5438 1.19056 23.6667 1.49998 23.6667H10.8333C11.1427 23.6667 11.4395 23.5438 11.6583 23.325C11.8771 23.1062 12 22.8094 12 22.5V20.1667H16.6666C16.9761 20.1667 17.2728 20.0438 17.4916 19.825C17.7104 19.6062 17.8333 19.3094 17.8333 19V16.6667H22.5C22.8094 16.6667 23.1061 16.5438 23.3249 16.325C23.5437 16.1062 23.6666 15.8094 23.6666 15.5V1.50001C23.6666 1.19059 23.5437 0.893845 23.3249 0.675052C23.1061 0.45626 22.8094 0.333344 22.5 0.333344ZM9.66665 21.3333H2.66665V14.3333H9.66665V21.3333ZM15.5 17.8333H12V13.1667C12 12.8573 11.8771 12.5605 11.6583 12.3417C11.4395 12.1229 11.1427 12 10.8333 12H6.16665V8.50001H15.5V17.8333ZM21.3333 14.3333H17.8333V7.33334C17.8333 7.02392 17.7104 6.72718 17.4916 6.50839C17.2728 6.28959 16.9761 6.16668 16.6666 6.16668H9.66665V2.66668H21.3333V14.3333Z" fill="white"/>
</svg>
