<svg width="28" height="24" viewBox="0 0 28 24" fill="none" xmlns="http://www.w3.org/2000/svg">
<path d="M24.88 2.66665C23.4666 1.2496 21.5931 0.384707 19.5978 0.228213C17.6025 0.0717198 15.617 0.633941 14 1.81332C12.3036 0.551503 10.192 -0.0206651 8.09058 0.212036C5.98915 0.444738 4.05394 1.46502 2.67465 3.06743C1.29536 4.66984 0.574451 6.73535 0.65709 8.84801C0.739728 10.9607 1.61978 12.9635 3.12002 14.4533L11.4 22.7467C12.0934 23.429 13.0272 23.8115 14 23.8115C14.9728 23.8115 15.9067 23.429 16.6 22.7467L24.88 14.4533C26.4368 12.887 27.3106 10.7684 27.3106 8.55999C27.3106 6.35162 26.4368 4.23296 24.88 2.66665ZM23 12.6133L14.72 20.8933C14.6258 20.9885 14.5137 21.064 14.3901 21.1155C14.2665 21.1671 14.1339 21.1936 14 21.1936C13.8661 21.1936 13.7336 21.1671 13.61 21.1155C13.4864 21.064 13.3742 20.9885 13.28 20.8933L5.00002 12.5733C3.95437 11.5044 3.36884 10.0686 3.36884 8.57332C3.36884 7.07803 3.95437 5.64219 5.00002 4.57332C6.06556 3.5213 7.50265 2.93141 9.00002 2.93141C10.4974 2.93141 11.9345 3.5213 13 4.57332C13.124 4.69829 13.2714 4.79748 13.4339 4.86518C13.5964 4.93287 13.7707 4.96772 13.9467 4.96772C14.1227 4.96772 14.297 4.93287 14.4595 4.86518C14.6219 4.79748 14.7694 4.69829 14.8934 4.57332C15.9589 3.5213 17.396 2.93141 18.8934 2.93141C20.3907 2.93141 21.8278 3.5213 22.8934 4.57332C23.9534 5.62819 24.5581 7.05624 24.5781 8.55157C24.598 10.0469 24.0315 11.4906 23 12.5733V12.6133Z" fill="white"/>
</svg>
