<svg width="28" height="28" viewBox="0 0 28 28" fill="none" xmlns="http://www.w3.org/2000/svg">
<path d="M25.48 23.5867C26.3156 22.4667 26.889 21.1733 27.1579 19.802C27.4269 18.4307 27.3844 17.0165 27.0338 15.6638C26.6831 14.3111 26.0332 13.0544 25.132 11.9864C24.2307 10.9184 23.1012 10.0665 21.8267 9.4934C21.549 7.89621 20.911 6.3833 19.9611 5.06963C19.0111 3.75597 17.7743 2.67611 16.3444 1.91211C14.9146 1.14811 13.3294 0.720075 11.7094 0.660521C10.0893 0.600967 8.47703 0.911463 6.99497 1.56842C5.5129 2.22537 4.20008 3.2115 3.15625 4.45187C2.11242 5.69225 1.36504 7.15423 0.970913 8.72673C0.576785 10.2992 0.546271 11.9409 0.88169 13.527C1.21711 15.113 1.90964 16.6018 2.90665 17.8801L1.05332 19.7201C0.868311 19.9076 0.742983 20.1457 0.693151 20.4043C0.643318 20.663 0.671215 20.9306 0.773321 21.1734C0.873348 21.4169 1.04321 21.6253 1.26151 21.7724C1.4798 21.9196 1.73675 21.9988 1.99999 22.0001H9.58665C10.3422 23.5929 11.5334 24.9391 13.0223 25.883C14.5113 26.8269 16.2371 27.3297 18 27.3334H26C26.2632 27.3321 26.5202 27.2529 26.7385 27.1058C26.9568 26.9587 27.1266 26.7502 27.2267 26.5067C27.3288 26.2639 27.3567 25.9963 27.3068 25.7377C27.257 25.479 27.1317 25.2409 26.9467 25.0534L25.48 23.5867ZM8.66665 18.0001C8.66849 18.4466 8.70414 18.8923 8.77332 19.3334H5.21332L5.67999 18.8801C5.80496 18.7561 5.90415 18.6087 5.97184 18.4462C6.03954 18.2837 6.07439 18.1094 6.07439 17.9334C6.07439 17.7574 6.03954 17.5831 5.97184 17.4206C5.90415 17.2582 5.80496 17.1107 5.67999 16.9867C4.93273 16.2477 4.34032 15.3671 3.93739 14.3964C3.53446 13.4257 3.3291 12.3844 3.33332 11.3334C3.33332 9.21167 4.17618 7.17684 5.67647 5.67655C7.17676 4.17626 9.21159 3.3334 11.3333 3.3334C12.9889 3.32345 14.606 3.83258 15.9572 4.78922C17.3085 5.74586 18.326 7.10191 18.8667 8.66674H18C15.5246 8.66674 13.1507 9.65007 11.4003 11.4004C9.64999 13.1507 8.66665 15.5247 8.66665 18.0001ZM22.72 24.6667L22.7867 24.7334H18C16.4578 24.7306 14.9642 24.1933 13.7737 23.2129C12.5833 22.2324 11.7696 20.8696 11.4712 19.3565C11.1728 17.8434 11.4083 16.2737 12.1374 14.9148C12.8666 13.5558 14.0443 12.4917 15.4701 11.9037C16.8958 11.3157 18.4813 11.2401 19.9564 11.69C21.4316 12.1398 22.7052 13.0872 23.5602 14.3707C24.4152 15.6542 24.7988 17.1944 24.6456 18.729C24.4924 20.2636 23.8119 21.6976 22.72 22.7867C22.4688 23.0329 22.325 23.3684 22.32 23.7201C22.3207 23.8965 22.3565 24.071 22.4251 24.2335C22.4938 24.396 22.594 24.5433 22.72 24.6667Z" fill="white"/>
</svg>
