<svg width="30" height="32" viewBox="0 0 30 32" fill="none" xmlns="http://www.w3.org/2000/svg">
<g filter="url(#filter0_d_4252_10)">
<path d="M22 4.99999H17.8117L20.495 2.32833C20.6038 2.21955 20.6901 2.09041 20.7489 1.94828C20.8078 1.80616 20.8381 1.65383 20.8381 1.49999C20.8381 1.34616 20.8078 1.19383 20.7489 1.0517C20.6901 0.909576 20.6038 0.780437 20.495 0.671659C20.3862 0.562881 20.2571 0.476593 20.115 0.417723C19.9728 0.358852 19.8205 0.328552 19.6667 0.328552C19.356 0.328552 19.058 0.451971 18.8383 0.671659L15 4.46333L13.635 2.12999C13.5584 1.9967 13.4563 1.8798 13.3345 1.78597C13.2127 1.69214 13.0737 1.62322 12.9252 1.58313C12.7768 1.54305 12.622 1.53259 12.4695 1.55236C12.317 1.57212 12.17 1.62172 12.0367 1.69833C11.9034 1.77493 11.7865 1.87704 11.6926 1.99882C11.5988 2.1206 11.5299 2.25967 11.4898 2.40809C11.4497 2.55651 11.4393 2.71137 11.459 2.86383C11.4788 3.01629 11.5284 3.16337 11.605 3.29666L12.6667 4.99999H8C7.07174 4.99999 6.1815 5.36874 5.52513 6.02512C4.86875 6.6815 4.5 7.57173 4.5 8.49999V17.8333C4.5 18.7616 4.86875 19.6518 5.52513 20.3082C6.1815 20.9646 7.07174 21.3333 8 21.3333V22.5C8 22.8094 8.12292 23.1062 8.34171 23.3249C8.5605 23.5437 8.85725 23.6667 9.16667 23.6667C9.47609 23.6667 9.77283 23.5437 9.99162 23.3249C10.2104 23.1062 10.3333 22.8094 10.3333 22.5V21.3333H19.6667V22.5C19.6667 22.8094 19.7896 23.1062 20.0084 23.3249C20.2272 23.5437 20.5239 23.6667 20.8333 23.6667C21.1428 23.6667 21.4395 23.5437 21.6583 23.3249C21.8771 23.1062 22 22.8094 22 22.5V21.3333C22.9283 21.3333 23.8185 20.9646 24.4749 20.3082C25.1313 19.6518 25.5 18.7616 25.5 17.8333V8.49999C25.5 7.57173 25.1313 6.6815 24.4749 6.02512C23.8185 5.36874 22.9283 4.99999 22 4.99999ZM23.1667 17.8333C23.1667 18.1427 23.0438 18.4395 22.825 18.6583C22.6062 18.8771 22.3094 19 22 19H8C7.69058 19 7.39383 18.8771 7.17504 18.6583C6.95625 18.4395 6.83333 18.1427 6.83333 17.8333V8.49999C6.83333 8.19057 6.95625 7.89383 7.17504 7.67503C7.39383 7.45624 7.69058 7.33333 8 7.33333H22C22.3094 7.33333 22.6062 7.45624 22.825 7.67503C23.0438 7.89383 23.1667 8.19057 23.1667 8.49999V17.8333Z" fill="#EF3A01"/>
<path d="M21 5.99999H17.41L19.71 3.70999C19.8032 3.61675 19.8772 3.50606 19.9277 3.38424C19.9781 3.26242 20.0041 3.13185 20.0041 2.99999C20.0041 2.86813 19.9781 2.73756 19.9277 2.61574C19.8772 2.49392 19.8032 2.38323 19.71 2.28999C19.6168 2.19675 19.5061 2.12279 19.3842 2.07233C19.2624 2.02187 19.1319 1.9959 19 1.9959C18.7337 1.9959 18.4783 2.10169 18.29 2.28999L15 5.53999L13.83 3.53999C13.7643 3.42574 13.6768 3.32554 13.5724 3.24512C13.468 3.16469 13.3488 3.10561 13.2216 3.07126C13.0944 3.0369 12.9617 3.02793 12.831 3.04488C12.7003 3.06182 12.5742 3.10433 12.46 3.16999C12.3457 3.23565 12.2456 3.32317 12.1651 3.42756C12.0847 3.53194 12.0256 3.65115 11.9913 3.77836C11.9569 3.90558 11.9479 4.03832 11.9649 4.169C11.9818 4.29968 12.0243 4.42574 12.09 4.53999L13 5.99999H9C8.20435 5.99999 7.44129 6.31606 6.87868 6.87867C6.31607 7.44128 6 8.20434 6 8.99999V17C6 17.7956 6.31607 18.5587 6.87868 19.1213C7.44129 19.6839 8.20435 20 9 20V21C9 21.2652 9.10536 21.5196 9.29289 21.7071C9.48043 21.8946 9.73478 22 10 22C10.2652 22 10.5196 21.8946 10.7071 21.7071C10.8946 21.5196 11 21.2652 11 21V20H19V21C19 21.2652 19.1054 21.5196 19.2929 21.7071C19.4804 21.8946 19.7348 22 20 22C20.2652 22 20.5196 21.8946 20.7071 21.7071C20.8946 21.5196 21 21.2652 21 21V20C21.7956 20 22.5587 19.6839 23.1213 19.1213C23.6839 18.5587 24 17.7956 24 17V8.99999C24 8.20434 23.6839 7.44128 23.1213 6.87867C22.5587 6.31606 21.7956 5.99999 21 5.99999ZM22 17C22 17.2652 21.8946 17.5196 21.7071 17.7071C21.5196 17.8946 21.2652 18 21 18H9C8.73478 18 8.48043 17.8946 8.29289 17.7071C8.10536 17.5196 8 17.2652 8 17V8.99999C8 8.73478 8.10536 8.48042 8.29289 8.29289C8.48043 8.10535 8.73478 7.99999 9 7.99999H21C21.2652 7.99999 21.5196 8.10535 21.7071 8.29289C21.8946 8.48042 22 8.73478 22 8.99999V17Z" fill="black"/>
</g>
<defs>
<filter id="filter0_d_4252_10" x="0.5" y="0.328552" width="29" height="31.3381" filterUnits="userSpaceOnUse" color-interpolation-filters="sRGB">
<feFlood flood-opacity="0" result="BackgroundImageFix"/>
<feColorMatrix in="SourceAlpha" type="matrix" values="0 0 0 0 0 0 0 0 0 0 0 0 0 0 0 0 0 0 127 0" result="hardAlpha"/>
<feOffset dy="4"/>
<feGaussianBlur stdDeviation="2"/>
<feComposite in2="hardAlpha" operator="out"/>
<feColorMatrix type="matrix" values="0 0 0 0 0 0 0 0 0 0 0 0 0 0 0 0 0 0 0.25 0"/>
<feBlend mode="normal" in2="BackgroundImageFix" result="effect1_dropShadow_4252_10"/>
<feBlend mode="normal" in="SourceGraphic" in2="effect1_dropShadow_4252_10" result="shape"/>
</filter>
</defs>
</svg>
