<svg width="24" height="24" viewBox="0 0 24 24" fill="none" xmlns="http://www.w3.org/2000/svg">
<path d="M16.5783 12.8283C17.7221 11.9284 18.557 10.6944 18.9668 9.29795C19.3766 7.90147 19.3409 6.41199 18.8647 5.03673C18.3886 3.66146 17.4956 2.4688 16.3101 1.62468C15.1245 0.780552 13.7054 0.326935 12.25 0.326935C10.7946 0.326935 9.37546 0.780552 8.18991 1.62468C7.00437 2.4688 6.1114 3.66146 5.63524 5.03673C5.15909 6.41199 5.12343 7.90147 5.53322 9.29795C5.94301 10.6944 6.77787 11.9284 7.92166 12.8283C5.96175 13.6136 4.25166 14.9159 2.9737 16.5966C1.69574 18.2772 0.89782 20.2732 0.664996 22.3717C0.648143 22.5249 0.661632 22.6799 0.704692 22.8279C0.747753 22.9759 0.819541 23.114 0.91596 23.2342C1.11068 23.4771 1.39391 23.6326 1.70333 23.6667C2.01275 23.7007 2.32302 23.6104 2.56588 23.4157C2.80874 23.221 2.96429 22.9378 2.99833 22.6283C3.25451 20.3477 4.34196 18.2415 6.05292 16.7119C7.76387 15.1824 9.97838 14.3369 12.2733 14.3369C14.5683 14.3369 16.7828 15.1824 18.4937 16.7119C20.2047 18.2415 21.2921 20.3477 21.5483 22.6283C21.58 22.915 21.7168 23.1798 21.9323 23.3715C22.1477 23.5633 22.4266 23.6684 22.715 23.6667H22.8433C23.1492 23.6315 23.4287 23.4769 23.621 23.2365C23.8133 22.9961 23.9028 22.6894 23.87 22.3833C23.6361 20.2789 22.8338 18.2778 21.5493 16.5946C20.2648 14.9113 18.5464 13.6094 16.5783 12.8283ZM12.25 12C11.327 12 10.4248 11.7263 9.65734 11.2135C8.88991 10.7008 8.29177 9.97192 7.93856 9.1192C7.58535 8.26648 7.49293 7.32817 7.673 6.42293C7.85306 5.51768 8.29752 4.68616 8.95016 4.03351C9.60281 3.38087 10.4343 2.93641 11.3396 2.75635C12.2448 2.57628 13.1831 2.6687 14.0359 3.02191C14.8886 3.37512 15.6174 3.97326 16.1302 4.74069C16.643 5.50811 16.9167 6.41037 16.9167 7.33335C16.9167 8.57102 16.425 9.75801 15.5498 10.6332C14.6747 11.5083 13.4877 12 12.25 12Z" fill="#757575"/>
</svg>
