<svg width="25" height="24" viewBox="0 0 25 24" fill="none" xmlns="http://www.w3.org/2000/svg">
<path d="M24.1667 9.28165C24.093 9.06825 23.959 8.88082 23.7809 8.74207C23.6028 8.60333 23.3883 8.51923 23.1634 8.49999L16.5251 7.53165L13.5501 1.49999C13.4545 1.30274 13.3054 1.13639 13.1197 1.01999C12.934 0.903592 12.7192 0.841858 12.5001 0.841858C12.2809 0.841858 12.0662 0.903592 11.8805 1.01999C11.6947 1.13639 11.5456 1.30274 11.4501 1.49999L8.47506 7.51999L1.83672 8.49999C1.6208 8.53068 1.4178 8.62128 1.25076 8.7615C1.08373 8.90173 0.959342 9.08597 0.891722 9.29332C0.829824 9.49594 0.82427 9.71159 0.875654 9.91713C0.927039 10.1227 1.03342 10.3103 1.18339 10.46L6.00172 15.1267L4.83505 21.7533C4.78795 21.9731 4.80537 22.2019 4.8852 22.4121C4.96504 22.6222 5.1039 22.8048 5.28507 22.9379C5.46625 23.0711 5.68202 23.149 5.90644 23.1624C6.13086 23.1757 6.35436 23.124 6.55006 23.0133L12.5001 19.8983L18.4501 23.0133C18.6138 23.1057 18.7987 23.1539 18.9867 23.1533C19.2339 23.1542 19.4749 23.0766 19.6751 22.9317C19.8561 22.802 19.9962 22.6232 20.0789 22.4165C20.1616 22.2098 20.1834 21.9837 20.1417 21.765L18.9751 15.1383L23.7934 10.4717C23.9618 10.3289 24.0863 10.1414 24.1524 9.93073C24.2185 9.72008 24.2235 9.49501 24.1667 9.28165ZM16.9917 13.9483C16.8567 14.0795 16.7554 14.2413 16.6965 14.4201C16.6376 14.5989 16.6228 14.7893 16.6534 14.975L17.4934 19.875L13.1067 17.5417C12.9362 17.4573 12.7486 17.4134 12.5584 17.4134C12.3682 17.4134 12.1805 17.4573 12.0101 17.5417L7.62339 19.875L8.46339 14.975C8.494 14.7893 8.47922 14.5989 8.4203 14.4201C8.36139 14.2413 8.26009 14.0795 8.12505 13.9483L4.62506 10.4483L9.53672 9.73665C9.72572 9.71036 9.90539 9.63812 10.06 9.52625C10.2146 9.41438 10.3393 9.2663 10.4234 9.09499L12.5001 4.64999L14.6934 9.10665C14.7774 9.27796 14.9022 9.42604 15.0568 9.53791C15.2114 9.64978 15.3911 9.72203 15.5801 9.74832L20.4917 10.46L16.9917 13.9483Z" fill="#757575"/>
</svg>
