<svg width="24" height="24" viewBox="0 0 24 24" fill="none" xmlns="http://www.w3.org/2000/svg">
<path d="M22.2499 0.333344H8.24992C7.9405 0.333344 7.64375 0.45626 7.42496 0.675052C7.20617 0.893845 7.08325 1.19059 7.08325 1.50001V6.16668H4.74992C4.4405 6.16668 4.14375 6.28959 3.92496 6.50839C3.70617 6.72718 3.58325 7.02392 3.58325 7.33334V12H1.24992C0.940499 12 0.643753 12.1229 0.424961 12.3417C0.206168 12.5605 0.083252 12.8573 0.083252 13.1667V22.5C0.083252 22.8094 0.206168 23.1062 0.424961 23.325C0.643753 23.5438 0.940499 23.6667 1.24992 23.6667H10.5833C10.8927 23.6667 11.1894 23.5438 11.4082 23.325C11.627 23.1062 11.7499 22.8094 11.7499 22.5V20.1667H16.4166C16.726 20.1667 17.0228 20.0438 17.2415 19.825C17.4603 19.6062 17.5833 19.3094 17.5833 19V16.6667H22.2499C22.5593 16.6667 22.8561 16.5438 23.0749 16.325C23.2937 16.1062 23.4166 15.8094 23.4166 15.5V1.50001C23.4166 1.19059 23.2937 0.893845 23.0749 0.675052C22.8561 0.45626 22.5593 0.333344 22.2499 0.333344ZM9.41658 21.3333H2.41659V14.3333H9.41658V21.3333ZM15.2499 17.8333H11.7499V13.1667C11.7499 12.8573 11.627 12.5605 11.4082 12.3417C11.1894 12.1229 10.8927 12 10.5833 12H5.91658V8.50001H15.2499V17.8333ZM21.0833 14.3333H17.5833V7.33334C17.5833 7.02392 17.4603 6.72718 17.2415 6.50839C17.0228 6.28959 16.726 6.16668 16.4166 6.16668H9.41658V2.66668H21.0833V14.3333Z" fill="#757575"/>
</svg>
